# xmcd
#
# Track frame offsets:
# 183
# 14705
# 16908
# 37313
# 55863
# 74368
# 80458
# 105190
# 126268
# 131285
# 146378
# 148605
# 168673
# 195353
# 216468
# 231668
# 251550
# 268058
# 288055
# 301190
#
# Disc length: 4234 seconds
#
#
# Revision: 0
# Processed by: cddbd v1.5.2PL0 Copyright (c) Steve Scherf et al.
# Submitted via: FreeRIP 2.941 
#
DISCID=27108814
DTITLE=Public Enemy - Muse Sick-n-Hour Mess Age (clean version)
DYEAR=1994
DGENRE=edited
TTITLE0=Whole Lotta Love Goin' On In The Middle Of Hell
TTITLE1=Theatrical Parts
TTITLE2=Give It Up
TTITLE3=What Side You On?
TTITLE4=Bedlam 13:13
TTITLE5=Stop in the Name...
TTITLE6=What Kind of Power We Got?
TTITLE7=So Whatcha Gone Do Now?
TTITLE8=White Heaven/Black Hell
TTITLE9=Race Against Time
TTITLE10=They Used to Call It Dope
TTITLE11=Aintnuttin Buttersong
TTITLE12=Live and Undrugged (Pt. 1 and 2)
TTITLE13=Thin Line Between Law and Rape
TTITLE14=I Ain't Mad at All
TTITLE15=I Stand Accused
TTITLE16=Godd Complexx
TTITLE17=Hitler Day
TTITLE18=Harry Allen's Interactive Super Highway Phone Call to Chuck D
TTITLE19=Livin in a Zoo (remix)
EXTD=WHAT SIDE YOU ON...WHAT SIDE YOU ON...WHAT SIDE YOU ON...etc.
EXTT0=
EXTT1=
EXTT2=
EXTT3=
EXTT4=
EXTT5=
EXTT6=
EXTT7=
EXTT8=
EXTT9=
EXTT10=
EXTT11=
EXTT12=
EXTT13=
EXTT14=
EXTT15=
EXTT16=
EXTT17=
EXTT18=
EXTT19=
PLAYORDER=
